# xmcd
#
# Track frame offsets: 
#        300
#        15987
#        34569
#        52245
#        67403
#        85546
#        104682
#        120055
#        139430
#        156620
#        178553
#
# Disc length: 2534 seconds
#
# Revision: 2
# Processed by: cddbd v1.5.2PL0 Copyright (c) Steve Scherf et al.
# Submitted via: ExactAudioCopy v0.99pb3
#
DISCID=9709e20b
DTITLE=The Considerate Builders Scheme - Exit To Riverside
DYEAR=2005
DGENRE=Electronic
TTITLE0=Three Beats Short
TTITLE1=And Five
TTITLE2=Busted
TTITLE3=Riverton Road
TTITLE4=Spare Change
TTITLE5=We Got it Down
TTITLE6=The Project
TTITLE7=Down Nine
TTITLE8=Back Space
TTITLE9=Even the Sun Rises
TTITLE10=A Little Different
EXTD=
EXTT0=
EXTT1=
EXTT2=
EXTT3=
EXTT4=
EXTT5=
EXTT6=
EXTT7=
EXTT8=
EXTT9=
EXTT10=
PLAYORDER=
